<?xml version="1.0" encoding="UTF-8"?>
<svg xmlns="http://www.w3.org/2000/svg" viewBox="0 0 1000 403">
  <g id="Layer_4">
    <path fill="#078c45" d="M18.81,7.9h90.67v15.38H18.97c-4.29,0-7.77-3.48-7.77-7.77h0c0-4.2,3.41-7.61,7.61-7.61Z"/>
    <rect fill="#ffffff" x="109.48" y="7.9" width="98.28" height="15.38"/>
    <path fill="#ce202b" d="M207.77,7.9h90.67c4.2,0,7.61,3.41,7.61,7.61v.16c0,4.2-3.41,7.61-7.61,7.61h-90.67V7.9Z"/>
  </g>
  <g id="Layer_3">
    <g>
      <path fill="currentColor" d="M306.07,60.59h-71.03c10.12,1.32,16.81,4.12,20.06,8.39,3.25,4.28,4.88,8.73,4.88,13.33v1.97c0,3.95-1.08,7.9-3.25,11.85l-80.24,151.57L95.71,95.64c-2.17-4.28-3.25-8.89-3.25-13.83v-2.96c.36-4.27,2.08-8.15,5.15-11.6,3.07-3.46,8.4-5.68,15.99-6.67H11.13c17.7,6.59,29.82,15.14,36.33,25.67l110.6,208.34,111.14-208.84c7.59-10.2,19.88-18.59,36.87-25.18Z"/>
      <path fill="currentColor" d="M949.08,94.91c-25.13-22.87-55.56-34.33-91.35-34.33s-65.69,11.46-90.81,34.33c-25.13,22.87-37.66,50.43-37.66,82.69s12.54,59.82,37.66,82.69c25.13,22.9,55.38,34.33,90.81,34.33s66.23-11.44,91.35-34.33c25.13-22.87,37.69-50.43,37.69-82.69s-12.56-59.82-37.69-82.69ZM918.72,256.1c-16.79,21.72-37.13,32.59-61,32.59s-43.64-10.87-60.46-32.59c-16.79-21.72-25.2-47.89-25.2-78.51s8.41-56.77,25.2-78.51c16.82-21.72,36.97-32.59,60.46-32.59s44.2,10.87,61,32.59c16.82,21.74,25.23,47.89,25.23,78.51s-8.41,56.79-25.23,78.51Z"/>
      <path fill="currentColor" d="M596.23,262.51v-91.48c-.36-6.9-3.08-10.36-8.13-10.36-2.9,0-6.15,1.67-9.77,4.95-6.51,6.26-13.56,15.31-21.15,27.15v69.74c0,8.23-2.51,14.72-7.59,19.51-5.05,4.77-12.82,9.13-23.31,13.08h100.3c-10.13-3.95-17.72-8.31-22.77-13.08-5.08-4.79-7.59-11.28-7.59-19.51Z"/>
      <path fill="currentColor" d="M723.27,74.57c-1.23-.87-2.56-1.74-3.97-2.64-9.41-5.92-22.05-9.69-37.95-11.36h-6.51c-12.64,0-24.38,2.15-35.23,6.41-10.85,4.31-20.08,9.15-27.66,14.59-7.59,5.44-12.82,10.13-15.72,14.08v-34.56c-13.02,5.59-36.33,10.2-69.94,13.82,10.49,3.62,18.25,7.74,23.31,12.33,5.08,4.62,7.59,11.05,7.59,19.26v33.59c-11.92,16.77-22.84,33.72-32.79,50.84-9.95,17.1-20.15,32.92-30.64,47.38-10.49,14.51-22.31,26.36-35.51,35.56-13.2,9.23-29.18,13.82-47.97,13.82l-7.05-.49c-24.23-2.31-44.64-13.49-61.28-33.56-9.92-11.97-16.87-25.79-20.84-41.41-2.49-9.61-3.82-19.9-4.05-30.89h193.42c-.51-26.28-5.18-48.3-14-66.07-4.31-8.72-9.61-16.43-15.92-23.1-11.1-11.72-25.23-20.41-42.38-26.02-11.95-3.36-23.41-5.05-34.41-5.05h-.54c-5.33,0-10.54.26-15.61.79-15.85,1.59-30.56,5.69-44.15,12.31-11.1,5.38-21.46,12.46-31.05,21.2-25.13,22.87-37.69,50.46-37.69,82.69s12.56,59.84,37.69,82.69c22.2,20.25,48.46,31.54,78.76,33.87,3.95.31,7.97.46,12.05.46,23.84,0,43.46-5.18,58.82-15.54,12.28-8.31,23.23-18.38,32.87-30.28,2.44-2.95,4.74-6.03,7-9.23,11.18-15.95,21.84-32.84,31.97-50.59.72-1.67,3.33-6.2,7.87-13.59,4.51-7.41,10.46-16.38,17.9-26.9,7.38-10.54,15.61-21.08,24.66-31.61,5.77-7.56,15.61-17.13,29.54-28.64,13.92-11.51,30.82-18.1,50.69-19.74h1.1c9.38,0,17.97,3.38,25.74,10.1,0,0,5.1,7,8.85,15.46,2.44,5.51,8.15,8.69,14.02,8.69,3.26,0,6.56-1,9.36-3.08,8.97-6.61,8.82-19.13-.33-25.59ZM317.02,178.08c0-12.49,1.08-22.36,3.23-29.61.49-2.41,1.03-4.77,1.62-7.1,3.05-20.18,8.77-36.51,17.18-49.05,12.82-18.82,30.74-28.25,53.77-28.25,4.41,0,8.67.31,12.74.95,1.33.38,2.62.82,3.9,1.31h.03c13.36,5.05,24.38,14.26,33.07,27.61,3.69,6.08,6.85,12.9,9.38,20.51,2.92,8.54,5.08,18.08,6.54,28.59,1.44,10.59,2.18,22.18,2.18,34.77v.87h-143.63v-.59Z"/>
    </g>
  </g>
  <g id="Layer_2">
    <path fill="currentColor" d="M33.98,360.43c-9.22-2.15-13.61-4.09-13.61-9.28s4.78-9.32,11.12-9.32c5.88,0,9.74,2.38,11.46,7.07l.39,1.06,6.93-1.53-.49-1.37c-2.7-7.47-9.36-11.75-18.28-11.75-10.24,0-18.27,6.96-18.27,15.84,0,11.14,11.42,13.86,18.98,15.66,9.07,2.14,13.11,3.93,13.11,8.9,0,5.89-5.26,9.69-13.4,9.69s-12.97-4.26-14.22-8.21l-.38-1.18-6.81,1.89.41,1.27c2.01,6.18,9.44,12.83,20.99,12.83,14.12,0,20.55-8.45,20.55-16.29,0-10.81-10.67-13.39-18.48-15.28Z"/>
    <path fill="currentColor" d="M181.81,370.26c0,9.48-5.64,15.14-15.09,15.14s-15.18-5.66-15.18-15.14v-34.05h-7.06v34.05c0,13.21,8.73,21.74,22.24,21.74s22.24-8.53,22.24-21.74v-34.05h-7.14v34.05Z"/>
    <path fill="currentColor" d="M324.1,352.72c0-10.34-8.22-16.51-21.98-16.51h-17.76v54.82h7.06v-21.87h10.7c.95,0,1.91-.05,2.82-.11l15.43,21.98h8.38l-16.34-23.31c7.46-2.41,11.7-7.8,11.7-15ZM302.12,362.64h-10.7v-19.83h10.7c9.9,0,14.92,3.34,14.92,9.92,0,8.2-8.12,9.92-14.92,9.92Z"/>
    <polygon fill="currentColor" points="418.75 391.03 425.81 391.03 425.81 366.62 451.15 366.62 451.15 360.1 425.81 360.1 425.81 342.8 454.35 342.8 454.35 336.21 418.75 336.21 418.75 391.03"/>
    <path fill="currentColor" d="M558.72,336.21l-23.12,54.82h7.61l6.16-14.63h25.22l6.16,14.63h7.61l-23.12-54.82h-6.53ZM552.15,369.8l9.87-23.25,9.8,23.25h-19.68Z"/>
    <path fill="currentColor" d="M705.04,341.83c7.29,0,13.82,2.72,18.39,7.65l.7.76,6.07-3.46-1.05-1.18c-5.84-6.54-14.63-10.29-24.1-10.29-17.49,0-31.19,12.43-31.19,28.31s13.7,28.38,31.19,28.38c9.4,0,18.19-3.75,24.1-10.28l1.05-1.16-6.05-3.57-.71.77c-4.5,4.86-11.2,7.64-18.39,7.64-13.48,0-24.04-9.57-24.04-21.78s10.56-21.79,24.04-21.79Z"/>
    <polygon fill="currentColor" points="828.14 365.95 853.56 365.95 853.56 359.43 828.14 359.43 828.14 342.8 855.5 342.8 855.5 336.21 821.08 336.21 821.08 391.03 856.26 391.03 856.26 384.51 828.14 384.51 828.14 365.95"/>
    <path fill="currentColor" d="M968.88,360.43c-9.23-2.15-13.62-4.09-13.62-9.28s4.78-9.32,11.13-9.32c5.88,0,9.73,2.38,11.45,7.07l.39,1.06,6.93-1.53-.49-1.37c-2.7-7.47-9.36-11.75-18.27-11.75-10.24,0-18.27,6.96-18.27,15.84,0,11.14,11.42,13.86,18.98,15.66,9.07,2.14,13.11,3.93,13.11,8.9,0,5.89-5.26,9.69-13.4,9.69s-12.97-4.26-14.22-8.21l-.37-1.18-6.81,1.89.41,1.27c2.01,6.18,9.44,12.83,20.99,12.83,14.12,0,20.55-8.45,20.55-16.29,0-10.81-10.67-13.39-18.48-15.28Z"/>
  </g>
</svg>