<?xml version="1.0" encoding="UTF-8" standalone="no"?>
<svg
   xmlns:dc="http://purl.org/dc/elements/1.1/"
   xmlns:cc="http://creativecommons.org/ns#"
   xmlns:rdf="http://www.w3.org/1999/02/22-rdf-syntax-ns#"
   xmlns:svg="http://www.w3.org/2000/svg"
   xmlns="http://www.w3.org/2000/svg"
   xmlns:sodipodi="http://sodipodi.sourceforge.net/DTD/sodipodi-0.dtd"
   xmlns:inkscape="http://www.inkscape.org/namespaces/inkscape"
   width="1000"
   height="201.08847"
   viewBox="0 0 3058.8235 355.2563"
   version="1.1"
   id="svg6266"
   sodipodi:docname="A.svg"
   style="fill:none"
   inkscape:version="0.92.4 (5da689c313, 2019-01-14)">
  <metadata
     id="metadata6272">
    <rdf:RDF>
      <cc:Work
         rdf:about="">
        <dc:format>image/svg+xml</dc:format>
        <dc:type
           rdf:resource="http://purl.org/dc/dcmitype/StillImage" />
        <dc:title></dc:title>
      </cc:Work>
    </rdf:RDF>
  </metadata>
  <defs
     id="defs6270" />
  <sodipodi:namedview
     pagecolor="#ffffff"
     bordercolor="#111111"
     borderopacity="1"
     objecttolerance="10"
     gridtolerance="10"
     guidetolerance="10"
     inkscape:pageopacity="0"
     inkscape:pageshadow="2"
     inkscape:window-width="1920"
     inkscape:window-height="1017"
     id="namedview6268"
     showgrid="false"
     fit-margin-top="0"
     fit-margin-left="0"
     fit-margin-right="0"
     fit-margin-bottom="0"
     inkscape:zoom="0.97352941"
     inkscape:cx="470.12477"
     inkscape:cy="29.006681"
     inkscape:window-x="1912"
     inkscape:window-y="-8"
     inkscape:window-maximized="1"
     inkscape:current-layer="svg6266" />
  <path
     d="m 1570.2825,226.01031 c 0,149.67931 124.1032,259.1649 281.7712,259.1649 157.6561,0 281.9012,-109.48559 281.9012,-259.1649 V -117.87416 H 1981.288 v 326.1551 c 0,80.79418 -56.028,135.19884 -129.6481,135.19884 -73.6202,0 -129.6481,-54.13392 -129.6481,-135.19884 v -326.1551 H 1569.3367 Z M 2541.8509,19.760403 h 182.1528 V 473.80647 h 152.6552 V 19.760403 h 182.1646 V -118.14485 h -516.9726 z m -98.6607,-137.905253 h -152.6551 v 591.95132 h 152.6551 z M 953.56519,19.760403 H 1135.7239 V 473.80647 h 152.6574 V 19.760403 h 182.0228 V -118.14485 H 953.56519 Z M 152.65674,-118.14485 H 0 V 473.80647 H 152.65674 Z M 873.17653,129.1112 c 0,-149.68015 -124.10203,-259.03012 -281.9012,-259.03012 -157.80036,0 -281.9012,109.34997 -281.9012,259.03012 V 473.80647 H 462.03042 V 147.65161 c 0,-80.794177 56.0291,-135.198837 129.65043,-135.198837 73.62133,0 129.65043,54.13392 129.65043,135.198837 v 326.15486 h 152.65629 l -0.947,-344.69527 z"
     id="path6264"
     inkscape:connector-curvature="0"
     style="fill:#236cff;stroke-width:11.82273102" />
</svg>
